<!-- Generator: Avocode 2.1.0 - http://avocode.com -->
<svg height="24" width="29" xmlns:xlink="http://www.w3.org/1999/xlink" xmlns="http://www.w3.org/2000/svg" viewBox="0 0 29 24">
    <path fill="#f79f09" fill-rule="evenodd" d="M 29 17.69 C 29 17.69 23.51 17.69 23.51 17.69 C 23.51 17.69 23.51 12.75 23.51 12.75 C 23.51 12.75 29 12.75 29 12.75 C 29 12.75 29 17.69 29 17.69 Z" />
    <path fill="#f79f09" fill-rule="evenodd" d="M 22.33 5.08 C 22.33 5.08 16.84 5.08 16.84 5.08 C 16.84 5.08 16.84 0.14 16.84 0.14 C 16.84 0.14 22.33 0.14 22.33 0.14 C 22.33 0.14 22.33 5.08 22.33 5.08 Z" />
    <path fill="#f79f09" fill-rule="evenodd" d="M 22.33 24 C 22.33 24 16.84 24 16.84 24 C 16.84 24 16.84 12.75 16.84 12.75 C 16.84 12.75 22.33 12.75 22.33 12.75 C 22.33 12.75 22.33 24 22.33 24 Z" />
    <path fill="#f79f09" fill-rule="evenodd" d="M 29 11.35 C 29 11.35 13.23 11.35 13.23 11.35 C 13.23 11.35 13.23 6.41 13.23 6.41 C 13.23 6.41 29 6.41 29 6.41 C 29 6.41 29 11.35 29 11.35 Z" />
    <path fill="#f79f09" fill-rule="evenodd" d="M 0 6.31 C 0 6.31 5.49 6.31 5.49 6.31 C 5.49 6.31 5.49 11.25 5.49 11.25 C 5.49 11.25 0 11.25 0 11.25 C 0 11.25 0 6.31 0 6.31 Z" />
    <path fill="#f79f09" fill-rule="evenodd" d="M 6.67 18.92 C 6.67 18.92 12.16 18.92 12.16 18.92 C 12.16 18.92 12.16 23.86 12.16 23.86 C 12.16 23.86 6.67 23.86 6.67 23.86 C 6.67 23.86 6.67 18.92 6.67 18.92 Z" />
    <path fill="#f79f09" fill-rule="evenodd" d="M 6.67 0 C 6.67 0 12.16 0 12.16 0 C 12.16 0 12.16 11.25 12.16 11.25 C 12.16 11.25 6.67 11.25 6.67 11.25 C 6.67 11.25 6.67 0 6.67 0 Z" />
    <path fill="#f79f09" fill-rule="evenodd" d="M 0 12.65 C 0 12.65 15.77 12.65 15.77 12.65 C 15.77 12.65 15.77 17.59 15.77 17.59 C 15.77 17.59 0 17.59 0 17.59 C 0 17.59 0 12.65 0 12.65 Z" />
</svg>